<?xml version="1.0" encoding="UTF-8" standalone="no"?><!DOCTYPE svg PUBLIC "-//W3C//DTD SVG 1.1//EN" "http://www.w3.org/Graphics/SVG/1.1/DTD/svg11.dtd"><svg width="100%" height="100%" viewBox="0 0 38 21" version="1.1" xmlns="http://www.w3.org/2000/svg" xmlns:xlink="http://www.w3.org/1999/xlink" xml:space="preserve" xmlns:serif="http://www.serif.com/" style="fill-rule:evenodd;clip-rule:evenodd;stroke-linejoin:round;stroke-miterlimit:2;"><g><rect x="1.2" y="15.85" width="35.7" height="2.5"/><g><path d="M21.425,5.075c0.4,-0.833 0.6,-1.5 0.6,-2c-0,-1.033 -0.417,-1.55 -1.25,-1.55c-0.567,0 -1.083,0.367 -1.55,1.1c-0.4,0.633 -0.6,1.233 -0.6,1.8c-0,0.5 0.383,1.017 1.15,1.55c-1.367,1.2 -2.667,2.1 -3.9,2.7c0.433,0.133 0.783,0.2 1.05,0.2c1,0 2.2,-0.817 3.6,-2.45c0.567,0.4 1.067,0.7 1.5,0.9l0.15,-1.75c-0.333,-0.233 -0.583,-0.4 -0.75,-0.5Zm-1.85,-1.75c0.033,-0.167 0.15,-0.267 0.35,-0.3c0.633,0.1 0.95,0.45 0.95,1.05c0,0.167 -0.033,0.35 -0.1,0.55c-0.8,-0.467 -1.2,-0.9 -1.2,-1.3Z" style="fill:#f00;"/></g></g></svg>