<?xml version="1.0" encoding="UTF-8" standalone="no"?><!DOCTYPE svg PUBLIC "-//W3C//DTD SVG 1.1//EN" "http://www.w3.org/Graphics/SVG/1.1/DTD/svg11.dtd"><svg width="100%" height="100%" viewBox="0 0 47 70" version="1.1" xmlns="http://www.w3.org/2000/svg" xmlns:xlink="http://www.w3.org/1999/xlink" xml:space="preserve" xmlns:serif="http://www.serif.com/" style="fill-rule:evenodd;clip-rule:evenodd;stroke-linejoin:round;stroke-miterlimit:2;"><g><rect x="23.111" y="50.143" width="17.65" height="6.05" style="fill-rule:nonzero;"/><path d="M15.961,39.643l0,-19.5c-0.667,0.6 -1.317,1.2 -1.95,1.8c-0.5,0.6 -0.75,1.4 -0.75,2.4c0,8.133 0.05,13.367 0.15,15.7c0.367,7.867 1.217,12.6 2.55,14.2c1.1,1.3 2.617,1.95 4.55,1.95l2.6,-0l0,-6.05l1.95,-0c-3.833,-0.081 -6.35,-0.847 -7.55,-2.3c-1.033,-1.3 -1.55,-4.033 -1.55,-8.2Zm-0.068,-27.849c0.496,-0.479 1.288,-0.466 1.767,0.031c0.479,0.496 0.466,1.288 -0.031,1.767l-5.8,5.6c-0.496,0.479 -1.288,0.466 -1.767,-0.031c-0.479,-0.496 -0.466,-1.288 0.031,-1.767l5.8,-5.6Z" style="fill:#f00;fill-rule:nonzero;"/></g></svg>