<?xml version="1.0" encoding="UTF-8" standalone="no"?><!DOCTYPE svg PUBLIC "-//W3C//DTD SVG 1.1//EN" "http://www.w3.org/Graphics/SVG/1.1/DTD/svg11.dtd"><svg width="100%" height="100%" viewBox="0 0 61 82" version="1.1" xmlns="http://www.w3.org/2000/svg" xmlns:xlink="http://www.w3.org/1999/xlink" xml:space="preserve" xmlns:serif="http://www.serif.com/" style="fill-rule:evenodd;clip-rule:evenodd;stroke-linejoin:round;stroke-miterlimit:2;"><path d="M24.8,49.1c-0.833,-2.4 -2,-3.6 -3.5,-3.6c-1.267,-0 -2.45,1.183 -3.55,3.55c-1,2.1 -1.5,3.933 -1.5,5.5c-0,2.667 1,4 3,4c1.533,-0 2.967,-0.883 4.3,-2.65c0.333,0.8 0.5,1.55 0.5,2.25c-0,3.933 -2.617,7.05 -7.85,9.35c-4.033,1.8 -8.183,2.7 -12.45,2.7c2.067,0.867 3.483,1.433 4.25,1.7c1.467,0.433 2.967,0.65 4.5,0.65c4.3,-0 7.65,-1.883 10.05,-5.65c2.1,-3.3 3.15,-7.367 3.15,-12.2c-0,-1.933 -0.3,-3.8 -0.9,-5.6Zm12.35,-28.6c-2.233,3.133 -3.35,5.017 -3.35,5.65l0.85,35.75c1.867,-1.633 2.8,-5.967 2.8,-13l-0.3,-28.4Zm14.25,-0c-2.233,3.1 -3.35,4.967 -3.35,5.6l0.85,35.75c1.833,-1.633 2.75,-5.967 2.75,-13l-0.25,-28.35Zm-32.9,33c0.467,-1.2 0.933,-2.3 1.4,-3.3c1.467,0.733 2.2,1.633 2.2,2.7c-0,0.4 -0.217,0.75 -0.65,1.05c-0.433,0.3 -0.85,0.45 -1.25,0.45c-0.033,-0 -0.6,-0.3 -1.7,-0.9Zm3.55,-16.85c-0,-0.833 -0.217,-1.65 -0.65,-2.45c-0.367,-0.7 -0.867,-1.05 -1.5,-1.05c-0.833,-0 -1.45,0.517 -1.85,1.55c-0.367,0.767 -0.55,1.733 -0.55,2.9c-0,1.967 0.633,2.95 1.9,2.95c0.767,-0 1.4,-0.4 1.9,-1.2c0.5,-0.8 0.75,-1.7 0.75,-2.7Zm-2.35,1.1c-0.8,-0 -1.2,-0.317 -1.2,-0.95c-0,-0.733 0.233,-1.1 0.7,-1.1c0.233,-0 0.517,0.183 0.85,0.55c0.433,0.4 0.65,0.717 0.65,0.95c-0,0.367 -0.333,0.55 -1,0.55Zm18.188,-28.804c0.471,-0.504 1.263,-0.53 1.766,-0.058c0.504,0.471 0.53,1.263 0.058,1.766l-9.6,10.25c-0.471,0.504 -1.263,0.53 -1.766,0.058c-0.504,-0.471 -0.53,-1.263 -0.058,-1.766l9.6,-10.25Zm14.986,-0.788c0.492,-0.483 1.284,-0.476 1.768,0.016c0.483,0.492 0.476,1.284 -0.016,1.768l-8.65,8.5c-0.492,0.483 -1.284,0.476 -1.768,-0.016c-0.483,-0.492 -0.476,-1.284 0.016,-1.768l8.65,-8.5Z" style="fill:#f00;fill-rule:nonzero;"/></svg>