<?xml version="1.0" encoding="UTF-8" standalone="no"?><!DOCTYPE svg PUBLIC "-//W3C//DTD SVG 1.1//EN" "http://www.w3.org/Graphics/SVG/1.1/DTD/svg11.dtd"><svg width="100%" height="100%" viewBox="0 0 66 82" version="1.1" xmlns="http://www.w3.org/2000/svg" xmlns:xlink="http://www.w3.org/1999/xlink" xml:space="preserve" xmlns:serif="http://www.serif.com/" style="fill-rule:evenodd;clip-rule:evenodd;stroke-linejoin:round;stroke-miterlimit:2;"><path d="M45.461,48.043c-0.833,-2.4 -2,-3.6 -3.5,-3.6c-1.267,0 -2.45,1.183 -3.55,3.55c-1,2.1 -1.5,3.933 -1.5,5.5c0,2.667 1,4 3,4c1.533,0 2.967,-0.883 4.3,-2.65c0.333,0.8 0.5,1.55 0.5,2.25c0,3.933 -2.617,7.05 -7.85,9.35c-4.033,1.8 -8.183,2.7 -12.45,2.7c2.067,0.867 3.483,1.433 4.25,1.7c1.467,0.433 2.967,0.65 4.5,0.65c4.3,0 7.65,-1.883 10.05,-5.65c2.1,-3.3 3.15,-7.367 3.15,-12.2c0,-1.933 -0.3,-3.8 -0.9,-5.6Zm-21.25,5.6c0,-1.933 -0.3,-3.8 -0.9,-5.6c-0.833,-2.4 -2,-3.6 -3.5,-3.6c-1.267,0 -2.45,1.183 -3.55,3.55c-1,2.1 -1.5,3.933 -1.5,5.5c0,2.667 1,4 3,4c1.533,0 2.967,-0.883 4.3,-2.65c0.333,0.8 0.5,1.55 0.5,2.25c0,3.933 -2.617,7.05 -7.85,9.35c-4.033,1.8 -8.183,2.7 -12.45,2.7c2.067,0.867 3.483,1.433 4.25,1.7c1.467,0.433 2.967,0.65 4.5,0.65c4.3,0 7.65,-1.883 10.05,-5.65c2.1,-3.3 3.15,-7.367 3.15,-12.2Zm33.6,-34.2c-2.233,3.133 -3.35,5.017 -3.35,5.65l0.85,35.75c1.867,-1.633 2.8,-5.967 2.8,-13l-0.3,-28.4Zm-16.95,33.9c-0.033,0 -0.6,-0.3 -1.7,-0.9c0.467,-1.2 0.933,-2.3 1.4,-3.3c1.467,0.733 2.2,1.633 2.2,2.7c0,0.4 -0.217,0.75 -0.65,1.05c-0.433,0.3 -0.85,0.45 -1.25,0.45Zm-20.25,-1.5c0,0.4 -0.217,0.75 -0.65,1.05c-0.433,0.3 -0.85,0.45 -1.25,0.45c-0.033,0 -0.6,-0.3 -1.7,-0.9c0.467,-1.2 0.933,-2.3 1.4,-3.3c1.467,0.733 2.2,1.633 2.2,2.7Zm0.727,-21.891c0.52,-0.454 1.31,-0.401 1.764,0.118c0.454,0.52 0.401,1.31 -0.118,1.764l-9.15,8c-0.52,0.454 -1.31,0.401 -1.764,-0.118c-0.454,-0.52 -0.401,-1.31 0.118,-1.764l9.15,-8Zm19.323,-0.009c-0.8,0 -1.4,0.467 -1.8,1.4c-0.333,0.733 -0.5,1.633 -0.5,2.7c0,1.8 0.6,2.7 1.8,2.7c0.733,0 1.333,-0.367 1.8,-1.1c0.5,-0.733 0.75,-1.567 0.75,-2.5c0,-0.767 -0.217,-1.517 -0.65,-2.25c-0.333,-0.633 -0.8,-0.95 -1.4,-0.95Zm0.15,2.85c0.4,0.367 0.6,0.667 0.6,0.9c0,0.3 -0.317,0.45 -0.95,0.45c-0.767,0 -1.15,-0.283 -1.15,-0.85c0,-0.667 0.217,-1 0.65,-1c0.233,0 0.517,0.167 0.85,0.5Zm18.571,-25.789l-8.85,8.75c-0.49,0.485 -0.495,1.277 -0.01,1.768c0.485,0.49 1.277,0.495 1.768,0.01l8.85,-8.75c0.49,-0.485 0.495,-1.277 0.01,-1.768c-0.485,-0.49 -1.277,-0.495 -1.768,-0.01Z" style="fill:#f00;fill-rule:nonzero;"/></svg>