<?xml version="1.0" encoding="UTF-8" standalone="no"?><!DOCTYPE svg PUBLIC "-//W3C//DTD SVG 1.1//EN" "http://www.w3.org/Graphics/SVG/1.1/DTD/svg11.dtd"><svg width="100%" height="100%" viewBox="0 0 49 85" version="1.1" xmlns="http://www.w3.org/2000/svg" xmlns:xlink="http://www.w3.org/1999/xlink" xml:space="preserve" xmlns:serif="http://www.serif.com/" style="fill-rule:evenodd;clip-rule:evenodd;stroke-linejoin:round;stroke-miterlimit:2;"><g><path d="M17.616,49.539c-1.033,1.9 -1.55,3.55 -1.55,4.95c0,2.433 1.033,3.65 3.1,3.65c1.6,-0 3.1,-0.817 4.5,-2.45c0.367,0.733 0.55,1.417 0.55,2.05c0,3.533 -2.733,6.35 -8.2,8.45c-4.2,1.6 -8.517,2.4 -12.95,2.4c2.133,0.8 3.6,1.317 4.4,1.55c1.533,0.4 3.1,0.6 4.7,0.6c4.467,-0 7.95,-1.7 10.45,-5.1c2.2,-3 3.3,-6.667 3.3,-11c0,-1.733 -0.317,-3.417 -0.95,-5.05c-0.867,-2.167 -2.067,-3.25 -3.6,-3.25c-1.333,-0 -2.583,1.067 -3.75,3.2Zm20.25,-25.75c-2.333,2.833 -3.5,4.533 -3.5,5.1l0.9,32.25c1.933,-1.467 2.9,-5.367 2.9,-11.7l-0.3,-25.65Zm-18,26.8c1.533,0.667 2.3,1.483 2.3,2.45c0,0.367 -0.217,0.683 -0.65,0.95c-0.467,0.233 -0.917,0.35 -1.35,0.35c-0.033,-0 -0.617,-0.25 -1.75,-0.75c0.5,-1.1 0.983,-2.1 1.45,-3Zm-0.35,-14.95c-0.4,-0.633 -0.983,-0.95 -1.75,-0.95c-1,-0 -1.75,0.467 -2.25,1.4c-0.4,0.733 -0.6,1.633 -0.6,2.7c0,1.8 0.75,2.7 2.25,2.7c0.867,-0 1.617,-0.367 2.25,-1.1c0.6,-0.733 0.9,-1.567 0.9,-2.5c0,-0.767 -0.267,-1.517 -0.8,-2.25Zm-2,3.3c-0.967,-0 -1.45,-0.3 -1.45,-0.9c0,-0.667 0.283,-1 0.85,-1c0.267,-0 0.6,0.167 1,0.5c0.5,0.367 0.75,0.667 0.75,0.9c0,0.333 -0.383,0.5 -1.15,0.5Zm20.481,-26.347c0.467,-0.507 1.259,-0.54 1.766,-0.072c0.507,0.467 0.54,1.259 0.072,1.766l-7.05,7.65c-0.467,0.507 -1.259,0.54 -1.766,0.072c-0.507,-0.467 -0.54,-1.259 -0.072,-1.766l7.05,-7.65Z" style="fill:#f00;fill-rule:nonzero;"/></g></svg>