<?xml version="1.0" encoding="UTF-8" standalone="no"?><!DOCTYPE svg PUBLIC "-//W3C//DTD SVG 1.1//EN" "http://www.w3.org/Graphics/SVG/1.1/DTD/svg11.dtd"><svg width="100%" height="100%" viewBox="0 0 53 68" version="1.1" xmlns="http://www.w3.org/2000/svg" xmlns:xlink="http://www.w3.org/1999/xlink" xml:space="preserve" xmlns:serif="http://www.serif.com/" style="fill-rule:evenodd;clip-rule:evenodd;stroke-linejoin:round;stroke-miterlimit:2;"><g><path d="M29,43.7c-3.833,-0.081 -6.35,-0.847 -7.55,-2.3c-1.033,-1.3 -1.55,-4.033 -1.55,-8.2l-0,-19.5c-0.667,0.6 -1.317,1.2 -1.95,1.8c-0.5,0.6 -0.75,1.4 -0.75,2.4c-0,8.133 0.05,13.367 0.15,15.7c0.367,7.867 1.217,12.6 2.55,14.2c1.1,1.3 2.617,1.95 4.55,1.95l2.6,-0l-0,-6.05l1.95,-0Z" style="fill:#f00;fill-rule:nonzero;"/><rect x="27.05" y="43.7" width="17.65" height="6.05" style="fill-rule:nonzero;"/><path d="M25.73,55.478l-7.95,5.6c-0.564,0.397 -0.699,1.178 -0.302,1.742c0.397,0.564 1.178,0.699 1.742,0.302l7.95,-5.6c0.564,-0.397 0.699,-1.178 0.302,-1.742c-0.397,-0.564 -1.178,-0.699 -1.742,-0.302Z" style="fill:#f00;"/></g></svg>