<?xml version="1.0" encoding="UTF-8" standalone="no"?><!DOCTYPE svg PUBLIC "-//W3C//DTD SVG 1.1//EN" "http://www.w3.org/Graphics/SVG/1.1/DTD/svg11.dtd"><svg width="100%" height="100%" viewBox="0 0 38 21" version="1.1" xmlns="http://www.w3.org/2000/svg" xmlns:xlink="http://www.w3.org/1999/xlink" xml:space="preserve" xmlns:serif="http://www.serif.com/" style="fill-rule:evenodd;clip-rule:evenodd;stroke-linejoin:round;stroke-miterlimit:2;"><g><rect x="1.2" y="4.8" width="35.7" height="2.5"/><path d="M21.38,11.679l-6.55,4.2c-0.232,0.149 -0.3,0.459 -0.151,0.691c0.149,0.232 0.459,0.3 0.691,0.151l6.55,-4.2c0.232,-0.149 0.3,-0.459 0.151,-0.691c-0.149,-0.232 -0.459,-0.3 -0.691,-0.151Zm0.664,-55.859l-6.55,3.9c-0.237,0.142 -0.315,0.449 -0.174,0.686c0.142,0.237 0.449,0.315 0.686,0.174l6.55,-3.9c0.237,-0.142 0.315,-0.449 0.174,-0.686c-0.142,-0.237 -0.449,-0.315 -0.686,-0.174Z" style="fill:#f00;"/></g></svg>