<?xml version="1.0" encoding="UTF-8" standalone="no"?><!DOCTYPE svg PUBLIC "-//W3C//DTD SVG 1.1//EN" "http://www.w3.org/Graphics/SVG/1.1/DTD/svg11.dtd"><svg width="100%" height="100%" viewBox="0 0 5 5" version="1.1" xmlns="http://www.w3.org/2000/svg" xmlns:xlink="http://www.w3.org/1999/xlink" xml:space="preserve" xmlns:serif="http://www.serif.com/" style="fill-rule:evenodd;clip-rule:evenodd;stroke-linejoin:round;stroke-miterlimit:2;"><rect x="0.352" y="4.506" width="4.296" height="0.296" style="fill:#f00;"/><path d="M3.419,2.034c-0,0.452 -0.102,0.853 -0.306,1.203c-0.205,0.364 -0.452,0.547 -0.744,0.547c-0.525,-0 -0.788,-0.445 -0.788,-1.334c0,-0.525 0.073,-0.963 0.219,-1.313c0.175,-0.452 0.43,-0.678 0.766,-0.678c0.248,-0 0.445,0.153 0.59,0.459c0.175,0.365 0.263,0.737 0.263,1.116Zm-1.16,-0.438c-0.175,0 -0.262,0.161 -0.262,0.482c-0,0.291 0.16,0.437 0.481,0.437c0.263,0 0.394,-0.08 0.394,-0.24c-0,-0.117 -0.088,-0.263 -0.263,-0.438c-0.131,-0.161 -0.248,-0.241 -0.35,-0.241Z" style="fill:#f00;fill-rule:nonzero;"/></svg>