<?xml version="1.0" encoding="UTF-8" standalone="no"?><!DOCTYPE svg PUBLIC "-//W3C//DTD SVG 1.1//EN" "http://www.w3.org/Graphics/SVG/1.1/DTD/svg11.dtd"><svg width="100%" height="100%" viewBox="0 0 52 74" version="1.1" xmlns="http://www.w3.org/2000/svg" xmlns:xlink="http://www.w3.org/1999/xlink" xml:space="preserve" xmlns:serif="http://www.serif.com/" style="fill-rule:evenodd;clip-rule:evenodd;stroke-linejoin:round;stroke-miterlimit:2;"><g><rect x="23.725" y="56.15" width="17.65" height="6.05" style="fill-rule:nonzero;"/><path d="M14.625,27.95c-0.5,0.6 -0.75,1.4 -0.75,2.4c-0,8.133 0.05,13.367 0.15,15.7c0.367,7.867 1.217,12.6 2.55,14.2c1.1,1.3 2.617,1.95 4.55,1.95l2.6,0l-0,-6.05l1.95,0c-3.833,-0.081 -6.35,-0.847 -7.55,-2.3c-1.033,-1.3 -1.55,-4.033 -1.55,-8.2l-0,-19.5c-0.667,0.6 -1.317,1.2 -1.95,1.8Zm1.7,-16.15c-0.767,-0 -1.35,0.383 -1.75,1.15c-0.633,0.833 -0.95,1.583 -0.95,2.25c0,0.633 0.433,1.2 1.3,1.7c-1.433,1.1 -2.867,2.083 -4.3,2.95c0.633,0.3 1.117,0.45 1.45,0.45c1.233,-0 2.583,-0.883 4.05,-2.65c0.467,0.4 1.083,0.717 1.85,0.95l0.15,-2.25c-0.4,-0.333 -0.65,-0.5 -0.75,-0.5c0.4,-0.833 0.6,-1.533 0.6,-2.1c0,-1.3 -0.55,-1.95 -1.65,-1.95Zm-0.95,2.2c0.5,0.1 0.75,0.383 0.75,0.85l0,0.25c-0.533,-0.367 -0.8,-0.7 -0.8,-1c0,-0.067 0.017,-0.1 0.05,-0.1Z" style="fill:#f00;fill-rule:nonzero;"/></g></svg>