<?xml version="1.0" encoding="UTF-8" standalone="no"?><!DOCTYPE svg PUBLIC "-//W3C//DTD SVG 1.1//EN" "http://www.w3.org/Graphics/SVG/1.1/DTD/svg11.dtd"><svg width="100%" height="100%" viewBox="0 0 35 70" version="1.1" xmlns="http://www.w3.org/2000/svg" xmlns:xlink="http://www.w3.org/1999/xlink" xml:space="preserve" xmlns:serif="http://www.serif.com/" style="fill-rule:evenodd;clip-rule:evenodd;stroke-linejoin:round;stroke-miterlimit:2;"><g><path d="M19.875,46.925l-0.25,-25.5c-2.333,2.8 -3.483,4.483 -3.45,5.05l0.85,32.1c1.9,-1.467 2.85,-5.35 2.85,-11.65Zm0.85,-33.7c-0,-1.2 -0.5,-1.8 -1.5,-1.8c-0.667,-0 -1.183,0.35 -1.55,1.05c-0.567,0.767 -0.85,1.467 -0.85,2.1c-0,0.6 0.383,1.117 1.15,1.55c-1.267,1.067 -2.55,2 -3.85,2.8c0.567,0.267 1,0.4 1.3,0.4c1.1,-0 2.317,-0.833 3.65,-2.5c0.4,0.367 0.933,0.667 1.6,0.9l0.2,-2.05c-0.4,-0.333 -0.633,-0.5 -0.7,-0.5c0.367,-0.767 0.55,-1.417 0.55,-1.95Zm-2.35,0.25c0.433,0.067 0.65,0.317 0.65,0.75c-0,0.133 0.017,0.217 0.05,0.25c-0.5,-0.333 -0.75,-0.65 -0.75,-0.95l0.05,-0.05Z" style="fill:#f00;fill-rule:nonzero;"/></g></svg>