<?xml version="1.0" encoding="UTF-8" standalone="no"?><!DOCTYPE svg PUBLIC "-//W3C//DTD SVG 1.1//EN" "http://www.w3.org/Graphics/SVG/1.1/DTD/svg11.dtd"><svg width="100%" height="100%" viewBox="0 0 55 82" version="1.1" xmlns="http://www.w3.org/2000/svg" xmlns:xlink="http://www.w3.org/1999/xlink" xml:space="preserve" xmlns:serif="http://www.serif.com/" style="fill-rule:evenodd;clip-rule:evenodd;stroke-linejoin:round;stroke-miterlimit:2;"><g><path d="M15.233,72.263c0.877,-0.672 2.133,-0.506 2.804,0.37c0.672,0.877 0.506,2.133 -0.37,2.804l-5.35,4.1c-0.877,0.672 -2.133,0.506 -2.804,-0.37c-0.672,-0.877 -0.506,-2.133 0.37,-2.804l5.35,-4.1Zm7.517,-21.913c-0.733,-2.067 -1.733,-3.1 -3,-3.1c-1.067,-0 -2.083,1.033 -3.05,3.1c-0.867,1.8 -1.3,3.367 -1.3,4.7c-0,2.333 0.85,3.5 2.55,3.5c1.333,-0 2.567,-0.767 3.7,-2.3c0.3,0.7 0.45,1.35 0.45,1.95c-0,3.4 -2.233,6.1 -6.7,8.1c-3.5,1.533 -7.067,2.3 -10.7,2.3c1.767,0.767 2.983,1.267 3.65,1.5c1.233,0.367 2.517,0.55 3.85,0.55c3.667,-0 6.533,-1.633 8.6,-4.9c1.833,-2.867 2.75,-6.383 2.75,-10.55c-0,-1.667 -0.267,-3.283 -0.8,-4.85Zm16,4.05c-0,-1.7 -0.233,-3.333 -0.7,-4.9c-0.633,-2.1 -1.517,-3.15 -2.65,-3.15c-0.933,-0 -1.833,1.033 -2.7,3.1c-0.733,1.833 -1.1,3.433 -1.1,4.8c-0,2.367 0.75,3.55 2.25,3.55c1.167,-0 2.25,-0.783 3.25,-2.35c0.267,0.733 0.4,1.4 0.4,2c-0,3.433 -1.983,6.167 -5.95,8.2c-3.067,1.567 -6.217,2.35 -9.45,2.35c1.567,0.8 2.65,1.3 3.25,1.5c1.1,0.4 2.233,0.6 3.4,0.6c3.233,-0 5.767,-1.667 7.6,-5c1.6,-2.9 2.4,-6.467 2.4,-10.7Zm7.35,-36.6c-2.033,3.633 -3.05,5.817 -3.05,6.55l0.75,41.35c1.667,-1.867 2.5,-6.867 2.5,-15l-0.2,-32.9Zm-28.75,36.4c0.4,-1.067 0.8,-2.017 1.2,-2.85c1.267,0.633 1.9,1.4 1.9,2.3c-0,0.367 -0.183,0.667 -0.55,0.9c-0.4,0.267 -0.767,0.4 -1.1,0.4c-0.033,-0 -0.517,-0.25 -1.45,-0.75Zm18.2,-0.45c-0.333,0.267 -0.667,0.4 -1,0.4c-0.033,-0 -0.45,-0.25 -1.25,-0.75c0.333,-1.1 0.683,-2.067 1.05,-2.9c1.1,0.633 1.65,1.417 1.65,2.35c-0,0.367 -0.15,0.667 -0.45,0.9Zm-3,-17.15c-0.767,-0 -1.35,0.433 -1.75,1.3c-0.333,0.733 -0.5,1.633 -0.5,2.7c-0,1.7 0.583,2.55 1.75,2.55c0.7,-0 1.3,-0.35 1.8,-1.05c0.467,-0.7 0.7,-1.5 0.7,-2.4c-0,-0.767 -0.167,-1.467 -0.5,-2.1c-0.4,-0.667 -0.9,-1 -1.5,-1Zm1.1,3.6c-0,0.567 -0.433,0.85 -1.3,0.85c-1.033,-0 -1.55,-0.417 -1.55,-1.25c-0,-0.933 0.333,-1.4 1,-1.4c0.3,-0 0.683,0.217 1.15,0.65c0.467,0.433 0.7,0.817 0.7,1.15Zm6.2,-26.4c0.6,0.3 1.05,0.45 1.35,0.45c1.1,-0 2.317,-0.817 3.65,-2.45c0.433,0.367 1,0.65 1.7,0.85l0.15,-2.05c-0.4,-0.3 -0.633,-0.467 -0.7,-0.5c0.367,-0.733 0.55,-1.367 0.55,-1.9c-0,-1.167 -0.5,-1.75 -1.5,-1.75c-0.7,-0 -1.233,0.35 -1.6,1.05c-0.567,0.767 -0.85,1.45 -0.85,2.05c-0,0.6 0.383,1.117 1.15,1.55c-1.3,1.033 -2.6,1.933 -3.9,2.7Zm4.3,-5.3l-0,-0.05c0.467,0.067 0.7,0.317 0.7,0.75l-0,0.25c-0.467,-0.333 -0.7,-0.65 -0.7,-0.95Z" style="fill:#f00;fill-rule:nonzero;"/></g></svg>