<?xml version="1.0" encoding="UTF-8" standalone="no"?><!DOCTYPE svg PUBLIC "-//W3C//DTD SVG 1.1//EN" "http://www.w3.org/Graphics/SVG/1.1/DTD/svg11.dtd"><svg width="100%" height="100%" viewBox="0 0 45 76" version="1.1" xmlns="http://www.w3.org/2000/svg" xmlns:xlink="http://www.w3.org/1999/xlink" xml:space="preserve" xmlns:serif="http://www.serif.com/" style="fill-rule:evenodd;clip-rule:evenodd;stroke-linejoin:round;stroke-miterlimit:2;"><g><path d="M4.647,65.2c4.382,-0.017 8.652,-0.817 12.806,-2.4c5.467,-2.1 8.2,-4.917 8.2,-8.45c0,-0.633 -0.183,-1.317 -0.55,-2.05c-1.4,1.633 -2.9,2.45 -4.5,2.45c-2.067,-0 -3.1,-1.217 -3.1,-3.65c0,-1.4 0.517,-3.05 1.55,-4.95c1.167,-2.133 2.417,-3.2 3.75,-3.2c1.533,-0 2.733,1.083 3.6,3.25c0.633,1.633 0.95,3.317 0.95,5.05c0,4.333 -1.1,8 -3.3,11c-2.5,3.4 -5.983,5.1 -10.45,5.1c-1.6,-0 -3.167,-0.2 -4.7,-0.6c-0.782,-0.228 -2.201,-0.727 -4.256,-1.496l-0,-0.054Zm34.656,-44.8c-2.333,2.833 -3.5,4.533 -3.5,5.1l0.9,32.25c1.933,-1.467 2.9,-5.367 2.9,-11.7l-0.3,-25.65Zm-18,26.8c1.533,0.667 2.3,1.483 2.3,2.45c0,0.367 -0.217,0.683 -0.65,0.95c-0.467,0.233 -0.917,0.35 -1.35,0.35c-0.033,-0 -0.617,-0.25 -1.75,-0.75c0.5,-1.1 0.983,-2.1 1.45,-3Zm1.982,-14.895c0.522,-0.452 1.312,-0.395 1.763,0.127c0.452,0.522 0.395,1.312 -0.127,1.763l-7.8,6.75c-0.522,0.452 -1.312,0.395 -1.763,-0.127c-0.452,-0.522 -0.395,-1.312 0.127,-1.763l7.8,-6.75Zm17.068,-18.705c-0.467,-0.367 -0.767,-0.567 -0.9,-0.6c0.5,-0.867 0.75,-1.617 0.75,-2.25c0,-1.4 -0.633,-2.1 -1.9,-2.1c-0.867,-0 -1.533,0.417 -2,1.25c-0.667,0.9 -1,1.717 -1,2.45c0,0.7 0.467,1.3 1.4,1.8c-1.6,1.233 -3.2,2.317 -4.8,3.25c0.7,0.333 1.25,0.5 1.65,0.5c1.367,-0 2.867,-0.967 4.5,-2.9c0.567,0.433 1.267,0.783 2.1,1.05l0.2,-2.45Zm-2.3,-1.65l0,0.3c-0.6,-0.433 -0.9,-0.817 -0.9,-1.15c0.033,-0.033 0.05,-0.067 0.05,-0.1c0.567,0.1 0.85,0.417 0.85,0.95Z" style="fill:#f00;"/></g></svg>