<?xml version="1.0" encoding="UTF-8" standalone="no"?><!DOCTYPE svg PUBLIC "-//W3C//DTD SVG 1.1//EN" "http://www.w3.org/Graphics/SVG/1.1/DTD/svg11.dtd"><svg width="100%" height="100%" viewBox="0 0 49 76" version="1.1" xmlns="http://www.w3.org/2000/svg" xmlns:xlink="http://www.w3.org/1999/xlink" xml:space="preserve" xmlns:serif="http://www.serif.com/" style="fill-rule:evenodd;clip-rule:evenodd;stroke-linejoin:round;stroke-miterlimit:2;"><path d="M20.65,46.375c-1.033,1.9 -1.55,3.55 -1.55,4.95c-0,2.433 1.033,3.65 3.1,3.65c1.6,0 3.1,-0.817 4.5,-2.45c0.367,0.733 0.55,1.417 0.55,2.05c-0,3.533 -2.733,6.35 -8.2,8.45c-4.2,1.6 -8.517,2.4 -12.95,2.4c2.133,0.8 3.6,1.317 4.4,1.55c1.533,0.4 3.1,0.6 4.7,0.6c4.467,0 7.95,-1.7 10.45,-5.1c2.2,-3 3.3,-6.667 3.3,-11c-0,-1.733 -0.317,-3.417 -0.95,-5.05c-0.867,-2.167 -2.067,-3.25 -3.6,-3.25c-1.333,0 -2.583,1.067 -3.75,3.2Zm20.25,-25.75c-2.333,2.833 -3.5,4.533 -3.5,5.1l0.9,32.25c1.933,-1.467 2.9,-5.367 2.9,-11.7l-0.3,-25.65Zm-15.7,29.25c-0,0.367 -0.217,0.683 -0.65,0.95c-0.467,0.233 -0.917,0.35 -1.35,0.35c-0.033,0 -0.617,-0.25 -1.75,-0.75c0.5,-1.1 0.983,-2.1 1.45,-3c1.533,0.667 2.3,1.483 2.3,2.45Zm-1.8,-19.2c-0,-1.533 -0.583,-2.3 -1.75,-2.3c-0.8,0 -1.417,0.467 -1.85,1.4c-0.633,0.967 -0.95,1.867 -0.95,2.7c-0,0.767 0.433,1.433 1.3,2c-1.467,1.333 -2.967,2.533 -4.5,3.6c0.7,0.333 1.217,0.5 1.55,0.5c1.267,0 2.683,-1.067 4.25,-3.2c0.5,0.467 1.133,0.85 1.9,1.15l0.2,-2.7c-0.433,-0.367 -0.7,-0.567 -0.8,-0.6c0.433,-1 0.65,-1.85 0.65,-2.55Zm-2.75,0.35c0.5,0.1 0.75,0.433 0.75,1c-0,0.133 0.017,0.25 0.05,0.35c-0.567,-0.467 -0.85,-0.883 -0.85,-1.25c-0,-0.067 0.017,-0.1 0.05,-0.1Zm20.1,-22.6c-0.867,0 -1.55,0.433 -2.05,1.3c-0.7,0.967 -1.05,1.85 -1.05,2.65c-0,0.733 0.483,1.383 1.45,1.95c-1.633,1.3 -3.283,2.45 -4.95,3.45c0.733,0.367 1.3,0.55 1.7,0.55c1.4,0 2.967,-1.05 4.7,-3.15c0.533,0.467 1.25,0.85 2.15,1.15l0.2,-2.6c-0.5,-0.4 -0.8,-0.617 -0.9,-0.65c0.467,-0.933 0.7,-1.75 0.7,-2.45c-0,-1.467 -0.65,-2.2 -1.95,-2.2Zm-0.2,3.85c-0.633,-0.467 -0.95,-0.883 -0.95,-1.25c0.033,-0.033 0.05,-0.067 0.05,-0.1c0.567,0.1 0.85,0.433 0.85,1c-0,0.167 0.017,0.283 0.05,0.35Z" style="fill:#f00;fill-rule:nonzero;"/></svg>