<?xml version="1.0" encoding="UTF-8" standalone="no"?><!DOCTYPE svg PUBLIC "-//W3C//DTD SVG 1.1//EN" "http://www.w3.org/Graphics/SVG/1.1/DTD/svg11.dtd"><svg width="100%" height="100%" viewBox="0 0 36 62" version="1.1" xmlns="http://www.w3.org/2000/svg" xmlns:xlink="http://www.w3.org/1999/xlink" xml:space="preserve" xmlns:serif="http://www.serif.com/" style="fill-rule:evenodd;clip-rule:evenodd;stroke-linejoin:round;stroke-miterlimit:2;"><g><g><rect x="24.8" y="31.35" width="6.7" height="6.8" style="fill-rule:nonzero;"/><path d="M17.2,28c-0.833,2.6 -1.25,4.7 -1.25,6.3c0,1.967 0.6,3.217 1.8,3.75c1.133,0.233 2.25,0.5 3.35,0.8c-1.3,3.1 -2.667,5.367 -4.1,6.8c-1.6,1.633 -3.467,2.45 -5.6,2.45c-1.167,-0 -2.867,-0.15 -5.1,-0.45c2.067,3.267 4.467,4.9 7.2,4.9c2.367,-0 4.383,-1.55 6.05,-4.65c1.167,-2.167 2.3,-5.4 3.4,-9.7l3.5,-0l0,-0.05l-1.65,-0l0,-6.8l1.65,-0l0,-0.35c-1.067,0.167 -2.167,0.167 -3.3,-0c-0.433,-1.467 -0.85,-2.917 -1.25,-4.35c-0.667,-1.9 -1.35,-2.85 -2.05,-2.85c-0.833,-0 -1.717,1.4 -2.65,4.2Zm1,4.95c0,-0.567 -0.067,-0.933 -0.2,-1.1c0.267,-0.9 0.533,-1.717 0.8,-2.45c0.733,0.533 1.2,1.017 1.4,1.45c0.167,0.367 0.317,1.183 0.45,2.45c-0.667,-0 -1.483,-0.117 -2.45,-0.35Zm2.6,-23.107c0.666,-0.58 1.677,-0.509 2.257,0.157c0.58,0.666 0.509,1.677 -0.157,2.257l-7.7,6.7c-0.666,0.58 -1.677,0.509 -2.257,-0.157c-0.58,-0.666 -0.509,-1.677 0.157,-2.257l7.7,-6.7Z" style="fill:#f00;fill-rule:nonzero;"/></g></g></svg>