<?xml version="1.0" encoding="UTF-8" standalone="no"?><!DOCTYPE svg PUBLIC "-//W3C//DTD SVG 1.1//EN" "http://www.w3.org/Graphics/SVG/1.1/DTD/svg11.dtd"><svg width="100%" height="100%" viewBox="0 0 59 82" version="1.1" xmlns="http://www.w3.org/2000/svg" xmlns:xlink="http://www.w3.org/1999/xlink" xml:space="preserve" xmlns:serif="http://www.serif.com/" style="fill-rule:evenodd;clip-rule:evenodd;stroke-linejoin:round;stroke-miterlimit:2;"><path d="M23.9,55.525c-0,-1.933 -0.3,-3.8 -0.9,-5.6c-0.833,-2.4 -2,-3.6 -3.5,-3.6c-1.267,0 -2.45,1.183 -3.55,3.55c-1,2.1 -1.5,3.933 -1.5,5.5c-0,2.667 1,4 3,4c1.533,0 2.967,-0.883 4.3,-2.65c0.333,0.8 0.5,1.55 0.5,2.25c-0,3.933 -2.617,7.05 -7.85,9.35c-4.033,1.8 -8.183,2.7 -12.45,2.7c2.067,0.867 3.483,1.433 4.25,1.7c1.467,0.433 2.967,0.65 4.5,0.65c4.3,0 7.65,-1.883 10.05,-5.65c2.1,-3.3 3.15,-7.367 3.15,-12.2Zm27.35,9.95c2.1,-3.3 3.15,-7.367 3.15,-12.2c-0,-1.933 -0.3,-3.8 -0.9,-5.6c-0.833,-2.4 -2,-3.6 -3.5,-3.6c-1.267,0 -2.45,1.183 -3.55,3.55c-1,2.1 -1.5,3.933 -1.5,5.5c-0,2.667 1,4 3,4c1.533,0 2.967,-0.883 4.3,-2.65c0.333,0.8 0.5,1.55 0.5,2.25c-0,3.933 -2.617,7.05 -7.85,9.35c-4.033,1.8 -8.183,2.7 -12.45,2.7c2.067,0.867 3.483,1.433 4.25,1.7c1.467,0.433 2.967,0.65 4.5,0.65c4.3,0 7.65,-1.883 10.05,-5.65Zm-15.9,-44.15c-2.233,3.133 -3.35,5.017 -3.35,5.65l0.85,35.75c1.867,-1.633 2.8,-5.967 2.8,-13l-0.3,-28.4Zm-15.05,32.4c-0,0.4 -0.217,0.75 -0.65,1.05c-0.433,0.3 -0.85,0.45 -1.25,0.45c-0.033,0 -0.6,-0.3 -1.7,-0.9c0.467,-1.2 0.933,-2.3 1.4,-3.3c1.467,0.733 2.2,1.633 2.2,2.7Zm30.5,-2.25c-0,0.4 -0.217,0.75 -0.65,1.05c-0.433,0.3 -0.85,0.45 -1.25,0.45c-0.033,0 -0.6,-0.3 -1.7,-0.9c0.467,-1.2 0.933,-2.3 1.4,-3.3c1.467,0.733 2.2,1.633 2.2,2.7Zm0.317,-21.282c0.515,-0.46 1.306,-0.415 1.765,0.099c0.46,0.515 0.415,1.306 -0.099,1.765l-8.4,7.5c-0.515,0.46 -1.306,0.415 -1.765,-0.099c-0.46,-0.515 -0.415,-1.306 0.099,-1.765l8.4,-7.5Zm-33.317,1.582c-0.9,0 -1.583,0.533 -2.05,1.6c-0.4,0.867 -0.6,1.917 -0.6,3.15c-0,2.133 0.7,3.2 2.1,3.2c0.833,0 1.517,-0.433 2.05,-1.3c0.567,-0.867 0.85,-1.833 0.85,-2.9c-0,-0.9 -0.233,-1.783 -0.7,-2.65c-0.4,-0.733 -0.95,-1.1 -1.65,-1.1Zm-0.8,2.7c0.267,0 0.583,0.2 0.95,0.6c0.467,0.433 0.7,0.783 0.7,1.05c-0,0.367 -0.35,0.55 -1.05,0.55c-0.9,0 -1.35,-0.333 -1.35,-1c-0,-0.8 0.25,-1.2 0.75,-1.2Zm19.113,-25.481l-8.2,8.25c-0.486,0.489 -0.484,1.281 0.006,1.768c0.489,0.486 1.281,0.484 1.768,-0.006l8.2,-8.25c0.486,-0.489 0.484,-1.281 -0.006,-1.768c-0.489,-0.486 -1.281,-0.484 -1.768,0.006Z" style="fill:#f00;"/></svg>