<?xml version="1.0" encoding="UTF-8" standalone="no"?><!DOCTYPE svg PUBLIC "-//W3C//DTD SVG 1.1//EN" "http://www.w3.org/Graphics/SVG/1.1/DTD/svg11.dtd"><svg width="100%" height="100%" viewBox="0 0 45 66" version="1.1" xmlns="http://www.w3.org/2000/svg" xmlns:xlink="http://www.w3.org/1999/xlink" xml:space="preserve" xmlns:serif="http://www.serif.com/" style="fill-rule:evenodd;clip-rule:evenodd;stroke-linejoin:round;stroke-miterlimit:2;"><g><path d="M22.422,47.277l-6.4,5.25c-0.682,0.56 -0.782,1.569 -0.222,2.252c0.56,0.682 1.569,0.782 2.252,0.222l6.4,-5.25c0.682,-0.56 0.782,-1.569 0.222,-2.252c-0.56,-0.682 -1.569,-0.782 -2.252,-0.222Zm6.415,-22.763l1.7,-0l0,-0.35c-1.033,0.167 -2.133,0.167 -3.3,-0c-0.4,-1.467 -0.817,-2.917 -1.25,-4.35c-0.667,-1.9 -1.35,-2.85 -2.05,-2.85c-0.833,-0 -1.717,1.4 -2.65,4.2c-0.833,2.6 -1.25,4.7 -1.25,6.3c0,1.967 0.617,3.217 1.85,3.75c1.1,0.233 2.2,0.5 3.3,0.8c-1.3,3.1 -2.65,5.367 -4.05,6.8c-1.633,1.633 -3.517,2.45 -5.65,2.45c-1.167,-0 -2.867,-0.15 -5.1,-0.45c2.067,3.267 4.467,4.9 7.2,4.9c2.367,-0 4.383,-1.55 6.05,-4.65c1.167,-2.167 2.3,-5.4 3.4,-9.7l3.5,-0l0,-0.05l-1.7,-0l0,-6.8Zm-6.75,0.5c0.3,-0.9 0.583,-1.717 0.85,-2.45c0.7,0.533 1.15,1.017 1.35,1.45c0.167,0.367 0.333,1.183 0.5,2.45c-0.7,-0 -1.533,-0.117 -2.5,-0.35c0,-0.567 -0.067,-0.933 -0.2,-1.1Z" style="fill:#f00;fill-rule:nonzero;"/><rect x="28.837" y="24.514" width="6.7" height="6.8" style="fill-rule:nonzero;"/></g></svg>