<?xml version="1.0" encoding="UTF-8" standalone="no"?><!DOCTYPE svg PUBLIC "-//W3C//DTD SVG 1.1//EN" "http://www.w3.org/Graphics/SVG/1.1/DTD/svg11.dtd"><svg width="100%" height="100%" viewBox="0 0 66 95" version="1.1" xmlns="http://www.w3.org/2000/svg" xmlns:xlink="http://www.w3.org/1999/xlink" xml:space="preserve" xmlns:serif="http://www.serif.com/" style="fill-rule:evenodd;clip-rule:evenodd;stroke-linejoin:round;stroke-miterlimit:2;"><path d="M51.209,79.955c0.609,-0.325 1.367,-0.094 1.692,0.514c0.325,0.609 0.094,1.367 -0.514,1.692l-10.3,5.5c-0.609,0.325 -1.367,0.094 -1.692,-0.514c-0.325,-0.609 -0.094,-1.367 0.514,-1.692l10.3,-5.5Zm3.739,-22.647c-0,-1.933 -0.3,-3.8 -0.9,-5.6c-0.833,-2.4 -2,-3.6 -3.5,-3.6c-1.267,0 -2.45,1.183 -3.55,3.55c-1,2.1 -1.5,3.933 -1.5,5.5c-0,2.667 1,4 3,4c1.533,0 2.967,-0.883 4.3,-2.65c0.333,0.8 0.5,1.55 0.5,2.25c-0,3.933 -2.617,7.05 -7.85,9.35c-4.033,1.8 -8.183,2.7 -12.45,2.7c2.067,0.867 3.483,1.433 4.25,1.7c1.467,0.433 2.967,0.65 4.5,0.65c4.3,0 7.65,-1.883 10.05,-5.65c2.1,-3.3 3.15,-7.367 3.15,-12.2Zm-30.427,-0.13c0,-1.933 -0.3,-3.8 -0.9,-5.6c-0.833,-2.4 -2,-3.6 -3.5,-3.6c-1.267,-0 -2.45,1.183 -3.55,3.55c-1,2.1 -1.5,3.933 -1.5,5.5c0,2.667 1,4 3,4c1.533,-0 2.967,-0.883 4.3,-2.65c0.333,0.8 0.5,1.55 0.5,2.25c0,3.933 -2.617,7.05 -7.85,9.35c-4.033,1.8 -8.183,2.7 -12.45,2.7c2.067,0.867 3.483,1.433 4.25,1.7c1.467,0.433 2.967,0.65 4.5,0.65c4.3,-0 7.65,-1.883 10.05,-5.65c2.1,-3.3 3.15,-7.367 3.15,-12.2Zm11.277,-34.07c-2.233,3.133 -3.35,5.017 -3.35,5.65l0.85,35.75c1.867,-1.633 2.8,-5.967 2.8,-13l-0.3,-28.4Zm15.55,32.4c-0,0.4 -0.217,0.75 -0.65,1.05c-0.433,0.3 -0.85,0.45 -1.25,0.45c-0.033,0 -0.6,-0.3 -1.7,-0.9c0.467,-1.2 0.933,-2.3 1.4,-3.3c1.467,0.733 2.2,1.633 2.2,2.7Zm-30.427,-0.13c0,0.4 -0.217,0.75 -0.65,1.05c-0.433,0.3 -0.85,0.45 -1.25,0.45c-0.033,-0 -0.6,-0.3 -1.7,-0.9c0.467,-1.2 0.933,-2.3 1.4,-3.3c1.467,0.733 2.2,1.633 2.2,2.7Zm-4.073,-22.22c-0.767,0 -1.35,0.517 -1.75,1.55c-0.633,1.1 -0.95,2.1 -0.95,3c-0,0.833 0.433,1.567 1.3,2.2c-1.433,1.5 -2.883,2.833 -4.35,4c0.667,0.4 1.167,0.6 1.5,0.6c1.2,0 2.55,-1.183 4.05,-3.55c0.467,0.533 1.083,0.967 1.85,1.3l0.2,-3c-0.433,-0.433 -0.7,-0.683 -0.8,-0.75c0.433,-1.067 0.65,-1.983 0.65,-2.75c-0,-1.733 -0.567,-2.6 -1.7,-2.6Zm-1,3.05c-0,-0.067 0.017,-0.1 0.05,-0.1c0.5,0.1 0.75,0.467 0.75,1.1l-0,0.4c-0.533,-0.533 -0.8,-1 -0.8,-1.4Zm22.259,-27.325c0.511,-0.464 1.302,-0.426 1.766,0.084c0.464,0.511 0.426,1.302 -0.084,1.766l-9.35,8.5c-0.511,0.464 -1.302,0.426 -1.766,-0.084c-0.464,-0.511 -0.426,-1.302 0.084,-1.766l9.35,-8.5Z" style="fill:#f00;fill-rule:nonzero;"/></svg>