<?xml version="1.0" encoding="UTF-8" standalone="no"?><!DOCTYPE svg PUBLIC "-//W3C//DTD SVG 1.1//EN" "http://www.w3.org/Graphics/SVG/1.1/DTD/svg11.dtd"><svg width="100%" height="100%" viewBox="0 0 41 74" version="1.1" xmlns="http://www.w3.org/2000/svg" xmlns:xlink="http://www.w3.org/1999/xlink" xml:space="preserve" xmlns:serif="http://www.serif.com/" style="fill-rule:evenodd;clip-rule:evenodd;stroke-linejoin:round;stroke-miterlimit:2;"><g><path d="M27.024,48.976c0.552,-0.415 1.336,-0.303 1.75,0.248c0.415,0.552 0.303,1.336 -0.248,1.75l-8.65,6.5c-0.552,0.415 -1.336,0.303 -1.75,-0.248c-0.415,-0.552 -0.303,-1.336 0.248,-1.75l8.65,-6.5Zm3.601,-23.501c0,-1.933 -0.283,-3.8 -0.85,-5.6c-0.733,-2.4 -1.8,-3.6 -3.2,-3.6c-1.167,0 -2.267,1.183 -3.3,3.55c-0.9,2.1 -1.35,3.933 -1.35,5.5c0,2.667 0.917,4 2.75,4c1.4,0 2.717,-0.883 3.95,-2.65c0.333,0.8 0.5,1.55 0.5,2.25c0,3.933 -2.417,7.05 -7.25,9.35c-3.767,1.8 -7.6,2.7 -11.5,2.7c1.9,0.867 3.2,1.433 3.9,1.7c1.333,0.433 2.717,0.65 4.15,0.65c3.967,0 7.067,-1.883 9.3,-5.65c1.933,-3.3 2.9,-7.367 2.9,-12.2Zm-3.3,-1.8c0,0.4 -0.2,0.75 -0.6,1.05c-0.4,0.3 -0.8,0.45 -1.2,0.45c-0.033,0 -0.55,-0.3 -1.55,-0.9c0.433,-1.2 0.867,-2.3 1.3,-3.3c1.367,0.733 2.05,1.633 2.05,2.7Z" style="fill:#f00;"/></g></svg>