<?xml version="1.0" encoding="UTF-8" standalone="no"?><!DOCTYPE svg PUBLIC "-//W3C//DTD SVG 1.1//EN" "http://www.w3.org/Graphics/SVG/1.1/DTD/svg11.dtd"><svg width="100%" height="100%" viewBox="0 0 44 70" version="1.1" xmlns="http://www.w3.org/2000/svg" xmlns:xlink="http://www.w3.org/1999/xlink" xml:space="preserve" xmlns:serif="http://www.serif.com/" style="fill-rule:evenodd;clip-rule:evenodd;stroke-linejoin:round;stroke-miterlimit:2;"><g><path d="M8.2,49.35c2.067,3.267 4.467,4.9 7.2,4.9c2.367,0 4.4,-1.55 6.1,-4.65c1.167,-2.167 2.3,-5.4 3.4,-9.7l3.5,0l0,-0.05l-1.7,0l0,-6.8l1.7,0l0,-0.35c-1.033,0.167 -2.133,0.167 -3.3,0c-0.433,-1.467 -0.85,-2.917 -1.25,-4.35c-0.667,-1.9 -1.35,-2.85 -2.05,-2.85c-0.833,0 -1.717,1.4 -2.65,4.2c-0.833,2.6 -1.25,4.7 -1.25,6.3c0,1.967 0.6,3.217 1.8,3.75c1.133,0.233 2.25,0.5 3.35,0.8c-1.3,3.1 -2.667,5.367 -4.1,6.8c-1.6,1.633 -3.483,2.45 -5.65,2.45c-1.167,0 -2.867,-0.15 -5.1,-0.45Zm11.95,-14.7c0,-0.567 -0.067,-0.933 -0.2,-1.1c0.267,-0.9 0.533,-1.717 0.8,-2.45c0.733,0.533 1.2,1.017 1.4,1.45c0.167,0.367 0.333,1.183 0.5,2.45c-0.7,0 -1.533,-0.117 -2.5,-0.35Zm-0.1,-23.3c-0.833,0 -1.483,0.517 -1.95,1.55c-0.7,1.133 -1.05,2.167 -1.05,3.1c0,0.833 0.483,1.583 1.45,2.25c-1.6,1.533 -3.2,2.883 -4.8,4.05c0.7,0.433 1.233,0.65 1.6,0.65c1.367,0 2.883,-1.217 4.55,-3.65c0.533,0.533 1.217,0.967 2.05,1.3l0.25,-3.05c-0.5,-0.467 -0.8,-0.717 -0.9,-0.75c0.467,-1.1 0.7,-2.05 0.7,-2.85c0,-1.733 -0.633,-2.6 -1.9,-2.6Zm-1.05,2.95c0.567,0.133 0.85,0.533 0.85,1.2l0,0.35c-0.6,-0.533 -0.9,-1 -0.9,-1.4c0.033,-0.067 0.05,-0.117 0.05,-0.15Z" style="fill:#f00;fill-rule:nonzero;"/><rect x="26.7" y="33.05" width="6.75" height="6.8" style="fill-rule:nonzero;"/></g></svg>