<?xml version="1.0" encoding="UTF-8" standalone="no"?><!DOCTYPE svg PUBLIC "-//W3C//DTD SVG 1.1//EN" "http://www.w3.org/Graphics/SVG/1.1/DTD/svg11.dtd"><svg width="100%" height="100%" viewBox="0 0 41 62" version="1.1" xmlns="http://www.w3.org/2000/svg" xmlns:xlink="http://www.w3.org/1999/xlink" xml:space="preserve" xmlns:serif="http://www.serif.com/" style="fill-rule:evenodd;clip-rule:evenodd;stroke-linejoin:round;stroke-miterlimit:2;"><g><path d="M20.831,28.245c-0.9,2.1 -1.35,3.933 -1.35,5.5c-0,2.667 0.917,4 2.75,4c1.4,0 2.717,-0.883 3.95,-2.65c0.333,0.8 0.5,1.55 0.5,2.25c-0,3.933 -2.417,7.05 -7.25,9.35c-3.767,1.8 -7.6,2.7 -11.5,2.7c1.9,0.867 3.2,1.433 3.9,1.7c1.333,0.433 2.717,0.65 4.15,0.65c3.967,0 7.067,-1.883 9.3,-5.65c1.933,-3.3 2.9,-7.367 2.9,-12.2c-0,-1.933 -0.283,-3.8 -0.85,-5.6c-0.733,-2.4 -1.8,-3.6 -3.2,-3.6c-1.167,0 -2.267,1.183 -3.3,3.55Zm2,1.15c1.367,0.733 2.05,1.633 2.05,2.7c-0,0.4 -0.2,0.75 -0.6,1.05c-0.4,0.3 -0.8,0.45 -1.2,0.45c-0.033,0 -0.55,-0.3 -1.55,-0.9c0.433,-1.2 0.867,-2.3 1.3,-3.3Zm-2.85,-20.7c-0.767,0 -1.35,0.417 -1.75,1.25c-0.633,0.9 -0.95,1.733 -0.95,2.5c-0,0.667 0.433,1.267 1.3,1.8c-1.433,1.233 -2.867,2.333 -4.3,3.3c0.633,0.333 1.117,0.5 1.45,0.5c1.233,0 2.583,-0.983 4.05,-2.95c0.467,0.433 1.083,0.783 1.85,1.05l0.15,-2.45c-0.4,-0.367 -0.65,-0.567 -0.75,-0.6c0.4,-0.9 0.6,-1.667 0.6,-2.3c-0,-1.4 -0.55,-2.1 -1.65,-2.1Zm-1,2.5c-0,-0.067 0.017,-0.1 0.05,-0.1c0.5,0.1 0.75,0.4 0.75,0.9l-0,0.3c-0.533,-0.4 -0.8,-0.767 -0.8,-1.1Z" style="fill:#f00;fill-rule:nonzero;"/></g></svg>